<svg width="256" height="256" viewBox="0 0 256 256" fill="none" xmlns="http://www.w3.org/2000/svg">
  <rect width="256" height="256" rx="64" fill="#111827"/>
  <circle cx="128" cy="128" r="88" fill="#F59E0B"/>
  <path d="M74 104C74 86.3269 88.3269 72 106 72H150C167.673 72 182 86.3269 182 104V152C182 169.673 167.673 184 150 184H106C88.3269 184 74 169.673 74 152V104Z" fill="#FFF7ED"/>
  <path d="M103.267 111.333C103.267 102.312 110.578 95 119.6 95H143.267C149.895 95 155.267 100.372 155.267 107V107C155.267 113.628 149.895 119 143.267 119H132.6C129.654 119 127.267 121.387 127.267 124.333V124.333C127.267 127.279 129.654 129.667 132.6 129.667H138.733C147.018 129.667 153.733 136.382 153.733 144.667V144.667C153.733 154.792 145.525 163 135.4 163H112.6C102.475 163 94.2667 154.792 94.2667 144.667V144.667" stroke="#111827" stroke-width="18" stroke-linecap="round"/>
  <circle cx="114" cy="109" r="8" fill="#111827"/>
  <circle cx="142" cy="147" r="8" fill="#111827"/>
</svg>
