<svg width="83" height="24" viewBox="0 0 83 24" fill="none" xmlns="http://www.w3.org/2000/svg">
<path d="M12 9.36621C12.6285 9.36622 13.1999 9.50534 13.709 9.78613C14.2256 10.0711 14.6294 10.5161 14.9248 11.1084C15.2339 11.7095 15.3828 12.4768 15.3828 13.3975C15.3828 14.3171 15.2342 15.0828 14.9258 15.6836L14.9268 15.6846C14.6309 16.2692 14.2256 16.7102 13.709 16.9951C13.1999 17.2759 12.6285 17.4141 12 17.4141C11.3802 17.4141 10.8092 17.2759 10.292 16.9961L10.291 16.9951C9.77507 16.7105 9.36571 16.271 9.06055 15.6875L9.05859 15.6836C8.75987 15.0832 8.61719 14.3172 8.61719 13.3975C8.61719 12.4777 8.75987 11.7117 9.05859 11.1113L9.06055 11.1084C9.36535 10.5159 9.77436 10.0712 10.291 9.78613L10.292 9.78516C10.8092 9.5054 11.3802 9.36621 12 9.36621ZM26.2988 9.36621C27.1636 9.36629 27.861 9.63506 28.3643 10.1904H28.3652C28.8822 10.7411 29.1201 11.5805 29.1201 12.665V12.8652H24.7188C24.7132 12.9308 24.7071 12.9991 24.7031 13.0703C24.694 13.2356 24.6895 13.4011 24.6895 13.5664C24.6895 14.184 24.789 14.7043 24.9805 15.1328C25.1742 15.5664 25.4201 15.8871 25.7119 16.1064L25.8271 16.1816C26.0967 16.3452 26.3651 16.4228 26.6348 16.4229C26.8928 16.4229 27.1359 16.3838 27.3652 16.3076C27.5888 16.2243 27.7992 16.0905 27.9961 15.9014C28.1886 15.7164 28.3624 15.4616 28.5137 15.1309L28.5938 14.958L28.7705 15.0293L29.0508 15.1416L29.2256 15.2119L29.166 15.3896C29.0548 15.725 28.8743 16.0466 28.6279 16.3535C28.3759 16.6675 28.0591 16.9245 27.6816 17.124L27.6777 17.126C27.2903 17.3205 26.8474 17.4141 26.3545 17.4141C25.65 17.4141 25.032 17.2515 24.5088 16.918L24.5068 16.917C23.9976 16.5859 23.6046 16.13 23.3281 15.5547L23.3262 15.5508C23.0601 14.9667 22.9297 14.3037 22.9297 13.5664C22.9297 12.72 23.0635 11.9823 23.3389 11.3594C23.6132 10.7295 24.0049 10.2379 24.5166 9.89453L24.7129 9.77051C25.1802 9.50002 25.7108 9.36621 26.2988 9.36621ZM18.9805 10.2617H18.7803C18.557 10.2617 18.3599 10.279 18.1885 10.3135L18.1064 10.334C18.0427 10.3579 18.0092 10.3974 17.9883 10.4502C17.9798 10.4825 17.9753 10.5467 17.9951 10.6562C18.0155 10.7687 18.0584 10.9124 18.126 11.0889L19.6553 14.8887L21.0186 11.3008L21.0195 11.2979C21.1372 10.9977 21.168 10.7945 21.1484 10.6699L21.1465 10.6592L21.3457 10.6387L21.1465 10.6582C21.1343 10.5374 21.0801 10.4533 20.9678 10.3906L20.9639 10.3887C20.8469 10.3196 20.6381 10.2653 20.3115 10.2471L20.1221 10.2363V9.55371L20.333 9.56641C20.4952 9.57546 20.6368 9.58462 20.7568 9.59375L20.9434 9.59766C20.9989 9.59989 21.0536 9.60314 21.1074 9.60742H21.5C21.7122 9.60742 21.9008 9.60288 22.0645 9.59375C22.2413 9.5844 22.4041 9.57574 22.5527 9.56641L22.7656 9.55273V10.2275L22.5869 10.2461C22.4592 10.2596 22.3346 10.317 22.2119 10.4326C22.0969 10.541 21.9695 10.7542 21.8418 11.1025L21.8408 11.1045L19.542 17.1611L19.4932 17.29H18.9824L18.9316 17.166L16.3516 10.9268V10.9258C16.2798 10.75 16.2107 10.6172 16.1465 10.5225C16.0806 10.4253 16.0293 10.3829 15.998 10.3672L15.9912 10.3633L15.9854 10.3594C15.8596 10.2836 15.7745 10.2617 15.7236 10.2617H15.5234V9.55566L15.7334 9.56543C15.9234 9.57498 16.1183 9.58935 16.3174 9.6084L16.3164 9.60938C16.516 9.61834 16.7295 9.62207 16.957 9.62207C17.2446 9.62207 17.5473 9.61774 17.8633 9.6084L18.333 9.59082C18.4835 9.58384 18.628 9.57569 18.7666 9.56641L18.9805 9.55176V10.2617ZM48.0098 15.3018C48.0098 15.7028 48.0812 15.9659 48.1924 16.123C48.2964 16.2495 48.5021 16.3408 48.876 16.3408H49.0752V17.0566L48.8564 17.0361C48.5732 17.0086 48.2899 16.9942 48.0068 16.9941C47.7427 16.9941 47.4877 17.0069 47.2432 17.0342L47.2441 17.0352C47.015 17.0617 46.8064 17.1106 46.6172 17.1797L46.3486 17.2773V16.1416C46.1549 16.4201 45.9266 16.6459 45.6572 16.8105H45.6562C45.2075 17.081 44.7374 17.2197 44.249 17.2197C43.9033 17.2197 43.5923 17.1702 43.3213 17.0654C43.1208 16.9879 42.9431 16.8856 42.79 16.7578L42.6455 16.6221C42.4385 16.4032 42.3022 16.1242 42.2305 15.7949C42.161 15.4759 42.1279 15.0896 42.1279 14.6396V11.1045C42.1279 10.6979 42.0545 10.4413 41.9443 10.2959L41.9414 10.292V10.291C41.8477 10.1623 41.6487 10.0645 41.2627 10.0645H41.0625V9.34961L41.2812 9.37012C41.5745 9.39774 41.8582 9.41113 42.1318 9.41113C42.3952 9.41113 42.644 9.39812 42.8779 9.37109C43.1198 9.3349 43.3367 9.28519 43.5293 9.22363L43.79 9.14062V14.9492C43.79 15.2318 43.8082 15.4892 43.8438 15.7217C43.8758 15.931 43.9535 16.0877 44.0684 16.2031C44.1634 16.2984 44.3423 16.3691 44.6553 16.3691C44.9749 16.3691 45.2537 16.2716 45.498 16.0752L45.5 16.0732C45.7588 15.872 45.9639 15.5965 46.1113 15.2393L46.1123 15.2354C46.2681 14.8789 46.3486 14.4747 46.3486 14.0195V11.1045C46.3486 10.6982 46.2751 10.4413 46.165 10.2959L46.1621 10.292C46.0686 10.1628 45.8693 10.0645 45.4824 10.0645H45.2832V9.34961L45.502 9.37012C45.7949 9.3977 46.0781 9.41112 46.3516 9.41113C46.6148 9.41113 46.8638 9.3981 47.0977 9.37109C47.3396 9.33491 47.5564 9.28519 47.749 9.22363L48.0098 9.14062V15.3018ZM56.1768 15.29C56.1768 15.6885 56.2475 15.9509 56.3574 16.1084L56.4004 16.1553C56.514 16.2589 56.7132 16.3301 57.043 16.3301H57.2422V17.0459L57.0234 17.0244C56.7401 16.9969 56.4561 16.9834 56.1729 16.9834C55.9089 16.9834 55.6545 16.9962 55.4102 17.0234L55.4111 17.0244C55.1821 17.051 54.9733 17.0989 54.7842 17.168L54.5156 17.2666V16.4512C54.4771 16.4969 54.4376 16.5416 54.3955 16.584C53.9766 17.0154 53.4118 17.2226 52.7246 17.2227C52.1112 17.2227 51.5629 17.0731 51.0879 16.7686L51.0869 16.7676C50.6175 16.46 50.2617 16.0026 50.0156 15.4092L50.0146 15.4062C49.7781 14.8119 49.6641 14.076 49.6641 13.2061C49.6641 12.3304 49.8126 11.5871 50.1211 10.9873L50.1221 10.9863C50.4354 10.3864 50.8467 9.9286 51.3604 9.625L51.3623 9.62402C51.8787 9.32476 52.4372 9.1748 53.0332 9.1748C53.4771 9.17487 53.8927 9.28201 54.2773 9.49512L54.4297 9.58789C54.4597 9.60882 54.4874 9.63245 54.5156 9.65527V7.47363C54.5156 7.06735 54.4421 6.81048 54.332 6.66504L54.3291 6.66113C54.2356 6.53198 54.0363 6.43359 53.6494 6.43359H53.4492V5.71875L53.668 5.73926C53.9611 5.76687 54.245 5.78026 54.5186 5.78027C54.7818 5.78027 55.0308 5.76724 55.2646 5.74023C55.5066 5.70405 55.7234 5.65434 55.916 5.59277L56.1768 5.50977V15.29ZM64.3213 15.29C64.3213 15.6885 64.392 15.9509 64.502 16.1084L64.5449 16.1553C64.6585 16.2589 64.8577 16.3301 65.1875 16.3301H65.3867V17.0459L65.168 17.0244C64.8846 16.9969 64.6006 16.9834 64.3174 16.9834C64.0534 16.9834 63.7991 16.9962 63.5547 17.0234L63.5557 17.0244C63.3266 17.051 63.1179 17.0989 62.9287 17.168L62.6602 17.2666V16.4512C62.6216 16.4969 62.5821 16.5416 62.54 16.584C62.1211 17.0154 61.5563 17.2226 60.8691 17.2227C60.2557 17.2227 59.7074 17.0731 59.2324 16.7686L59.2314 16.7676C58.762 16.46 58.4063 16.0026 58.1602 15.4092L58.1592 15.4062C57.9226 14.8119 57.8086 14.076 57.8086 13.2061C57.8086 12.3304 57.9571 11.5871 58.2656 10.9873L58.2666 10.9863C58.58 10.3864 58.9913 9.9286 59.5049 9.625L59.5068 9.62402C60.0232 9.32476 60.5817 9.1748 61.1777 9.1748C61.6216 9.17487 62.0373 9.28201 62.4219 9.49512L62.5742 9.58789C62.6042 9.60882 62.632 9.63245 62.6602 9.65527V7.47363C62.6602 7.06735 62.5866 6.81048 62.4766 6.66504L62.4736 6.66113C62.3801 6.53198 62.1808 6.43359 61.7939 6.43359H61.5938V5.71875L61.8125 5.73926C62.1057 5.76687 62.3895 5.78026 62.6631 5.78027C62.9263 5.78027 63.1753 5.76724 63.4092 5.74023C63.6511 5.70405 63.8679 5.65434 64.0605 5.59277L64.3213 5.50977V15.29ZM0.522461 6.84668C0.716997 6.85598 0.972927 6.86563 1.29004 6.875C1.60551 6.88432 1.94491 6.88867 2.30762 6.88867C2.63266 6.88867 2.95296 6.88432 3.26855 6.875C3.59515 6.86563 3.86549 6.85601 4.0791 6.84668L4.28809 6.83789V7.52246L4.09375 7.52832C3.78421 7.53747 3.56818 7.57459 3.43164 7.62793L3.42578 7.62988C3.3289 7.66423 3.2645 7.72787 3.22656 7.8418L3.22461 7.8457C3.18042 7.97167 3.15234 8.19678 3.15234 8.54004V15.5264C3.15237 15.8583 3.18084 16.0858 3.22656 16.2236C3.26395 16.3361 3.32718 16.3989 3.42188 16.4336C3.5641 16.4717 3.78263 16.4951 4.08789 16.4951H5.11133C5.53883 16.4951 5.86942 16.449 6.11133 16.3652L6.11328 16.3643C6.36347 16.2805 6.54858 16.1548 6.67969 15.9922L6.68066 15.9912C6.82553 15.8133 6.9414 15.5698 7.02051 15.252C7.10145 14.9266 7.16579 14.5239 7.21191 14.042L7.22852 13.8613H7.95312L7.93262 14.0801C7.90546 14.362 7.89063 14.74 7.89062 15.2158C7.89062 15.3914 7.89594 15.6478 7.90527 15.9854H7.9043C7.92279 16.3087 7.95142 16.6463 7.98828 16.998L8.01172 17.2275L7.78125 17.2188C7.30775 17.2001 6.77294 17.1904 6.17676 17.1904H6.17383C5.57641 17.1811 5.04417 17.1768 4.57812 17.1768H3.7793C3.46351 17.1768 3.11945 17.1811 2.74707 17.1904H2.74219C2.37004 17.1904 1.9929 17.1957 1.61133 17.2051H1.60645C1.22501 17.2051 0.862267 17.2094 0.518555 17.2188L0.3125 17.2246V16.5488L0.500977 16.5371C0.813445 16.5186 1.02934 16.4823 1.16113 16.4355L1.16406 16.4346C1.27227 16.3983 1.33766 16.333 1.37402 16.2236C1.41975 16.0858 1.44822 15.8583 1.44824 15.5264V8.54004C1.44824 8.1968 1.42016 7.97167 1.37598 7.8457L1.37402 7.8418C1.33765 7.73259 1.27218 7.66706 1.16406 7.63086L1.15137 7.62695V7.62598C1.02652 7.57433 0.817352 7.5375 0.506836 7.52832L0.3125 7.52246V6.83691L0.522461 6.84668ZM73.3965 9.1748C74.2613 9.17489 74.9586 9.44366 75.4619 9.99902H75.4629C75.9798 10.5497 76.2178 11.3891 76.2178 12.4736V12.6738H71.8164C71.8108 12.7394 71.8047 12.8077 71.8008 12.8789C71.7916 13.0442 71.7871 13.2097 71.7871 13.375C71.7871 13.9926 71.8866 14.5129 72.0781 14.9414C72.2719 15.375 72.5178 15.6957 72.8096 15.915L72.9248 15.9902C73.1943 16.1538 73.4627 16.2314 73.7324 16.2314C73.9905 16.2314 74.2336 16.1924 74.4629 16.1162C74.6864 16.0328 74.8968 15.8991 75.0938 15.71C75.2863 15.525 75.4601 15.2701 75.6113 14.9395L75.6914 14.7666L75.8682 14.8369L76.1484 14.9502L76.3232 15.0205L76.2637 15.1982C76.1524 15.5336 75.9719 15.8552 75.7256 16.1621C75.4736 16.4761 75.1567 16.733 74.7793 16.9326L74.7754 16.9346C74.388 17.1291 73.945 17.2227 73.4521 17.2227C72.7476 17.2227 72.1297 17.0601 71.6064 16.7266L71.6045 16.7256C71.0953 16.3945 70.7023 15.9386 70.4258 15.3633L70.4238 15.3594C70.1578 14.7753 70.0273 14.1123 70.0273 13.375C70.0274 12.5286 70.1611 11.7909 70.4365 11.168C70.7109 10.5381 71.1025 10.0465 71.6143 9.70312L71.8105 9.5791C72.2778 9.30861 72.8085 9.1748 73.3965 9.1748ZM79.5967 9.1748C79.9915 9.1748 80.34 9.23946 80.6348 9.37695C80.8997 9.50054 81.1091 9.62147 81.251 9.74121H81.252C81.3116 9.79026 81.3487 9.8039 81.3643 9.80762C81.3758 9.79567 81.3995 9.76383 81.4238 9.69043C81.4494 9.61341 81.4718 9.50713 81.4873 9.36719L81.5068 9.18945H82.2227L82.208 9.40332C82.1988 9.53279 82.1905 9.67534 82.1836 9.83105L82.166 10.3379C82.1567 10.6921 82.1523 11.1737 82.1523 11.7832V11.9834H81.46L81.4326 11.8154C81.3792 11.4843 81.2853 11.1616 81.1514 10.8477L81.1494 10.8438C81.0308 10.5459 80.8553 10.3075 80.623 10.124L80.6191 10.1211C80.4012 9.94125 80.1083 9.84277 79.7227 9.84277C79.4367 9.84285 79.2084 9.92412 79.0244 10.0781H79.0234C78.8664 10.2084 78.7734 10.4124 78.7734 10.7275C78.7735 10.9657 78.8433 11.1644 78.9805 11.333C79.1335 11.5116 79.3372 11.686 79.5947 11.8555H79.5938C79.8644 12.0243 80.1582 12.2113 80.4746 12.417C80.8354 12.6459 81.1646 12.881 81.4609 13.1211C81.7664 13.3686 82.0125 13.6439 82.1943 13.9482H82.1934C82.3925 14.2657 82.4882 14.6357 82.4883 15.0508C82.4883 15.5188 82.3662 15.9259 82.1104 16.2578C81.8631 16.5785 81.5398 16.8199 81.1455 16.9824L81.1445 16.9814C80.7626 17.1427 80.3444 17.2226 79.8916 17.2227C79.6738 17.2227 79.4636 17.2034 79.2627 17.1631V17.1621C79.0739 17.1315 78.8898 17.0816 78.7109 17.0117L78.7021 17.0088L78.6943 17.0049C78.5938 16.9544 78.4895 16.894 78.3818 16.8252L78.374 16.8203C78.28 16.7542 78.1864 16.6833 78.0928 16.6084C78.0825 16.6216 78.0655 16.6489 78.0469 16.7002C78.0246 16.7618 78.0028 16.8462 77.9854 16.9561L77.959 17.124H77.2529L77.2666 16.9121C77.2851 16.6152 77.2983 16.2516 77.3076 15.8213C77.3169 15.3914 77.3223 14.8203 77.3223 14.1074V13.9072H78.0215L78.043 14.083C78.1073 14.6001 78.1982 15.0482 78.3154 15.4287C78.4275 15.7925 78.6007 16.0665 78.8271 16.2627L78.9121 16.3262C79.1217 16.464 79.4097 16.541 79.793 16.541C79.9488 16.541 80.108 16.5065 80.2715 16.4326L80.2744 16.4307C80.4313 16.3631 80.566 16.2495 80.6777 16.0811C80.7798 15.9271 80.8408 15.7073 80.8408 15.4033C80.8408 15.0452 80.7141 14.7624 80.46 14.5391C80.1709 14.285 79.8016 14.0138 79.3496 13.7266H79.3486C79.0093 13.5088 78.688 13.2905 78.3857 13.0723L78.3838 13.0703C78.0781 12.8425 77.8235 12.583 77.623 12.291L77.6211 12.2871C77.4187 11.9768 77.3223 11.6087 77.3223 11.1924C77.3223 10.7411 77.4222 10.3537 77.6396 10.0479V10.0469C77.8316 9.7806 78.077 9.5779 78.3721 9.44043L78.502 9.38574C78.844 9.24503 79.2094 9.17483 79.5967 9.1748ZM32.9014 6.65137C33.0959 6.66067 33.3518 6.67032 33.6689 6.67969C33.9847 6.68901 34.2962 6.69336 34.6025 6.69336C35.0402 6.69336 35.4593 6.68903 35.8594 6.67969C36.2609 6.67031 36.5479 6.66602 36.7188 6.66602C37.7236 6.66602 38.5166 6.87672 39.0625 7.33203C39.6035 7.78335 39.877 8.37031 39.877 9.07715C39.8769 9.4341 39.8002 9.7839 39.6504 10.126C39.5045 10.4714 39.2589 10.7837 38.9219 11.0625H38.9209C38.7298 11.2195 38.5033 11.3564 38.2441 11.4766C38.6921 11.5806 39.0704 11.7267 39.374 11.9199L39.5352 12.0234C39.8981 12.2709 40.1685 12.5635 40.334 12.9053C40.5153 13.2797 40.6064 13.6757 40.6064 14.0908C40.6064 14.661 40.4605 15.173 40.167 15.6211L40.168 15.6221C39.8828 16.062 39.4678 16.4043 38.9346 16.6523C38.3976 16.9021 37.7646 17.0234 37.042 17.0234C36.834 17.0234 36.5229 17.0192 36.1113 17.0098H36.1074V17.0088C35.7001 16.9902 35.2075 16.9814 34.6299 16.9814C34.3048 16.9814 33.9845 16.9858 33.6689 16.9951H33.6631C33.3486 16.9951 33.0984 17.0046 32.9111 17.0225L32.6914 17.0439V16.3535L32.8799 16.3418C33.1924 16.3233 33.4082 16.287 33.54 16.2402L33.543 16.2393C33.6512 16.203 33.7166 16.1377 33.7529 16.0283C33.7987 15.8905 33.8271 15.663 33.8271 15.3311V8.34473C33.8271 8.00149 33.7991 7.77636 33.7549 7.65039L33.7529 7.64648C33.7166 7.53727 33.6511 7.47175 33.543 7.43555L33.5303 7.43164V7.43066C33.4054 7.37902 33.1963 7.34219 32.8857 7.33301L32.6914 7.32715V6.6416L32.9014 6.65137ZM68.4189 15.5156C68.4189 15.892 68.4965 16.0822 68.5859 16.165L68.6328 16.1992C68.7555 16.2765 68.962 16.33 69.2842 16.3301H69.4844V17.0381L69.2725 17.0254C69.1168 17.0162 68.8764 17.0064 68.5498 16.9971H68.5439C68.2302 16.9785 67.9112 16.9697 67.5879 16.9697C67.2741 16.9697 66.9552 16.9785 66.6318 16.9971H66.626C66.2994 17.0064 66.059 17.0162 65.9033 17.0254L65.6914 17.0381V16.3301H65.8916C66.2612 16.3301 66.4697 16.2598 66.5723 16.1689L66.6123 16.1289C66.6933 16.0329 66.7568 15.8472 66.7568 15.5156V11.1074C66.7568 10.7008 66.6834 10.4442 66.5732 10.2988L66.5703 10.2949V10.2939C66.4766 10.1652 66.2776 10.0674 65.8916 10.0674H65.6914V9.35254L65.9102 9.37305C66.2034 9.40067 66.4871 9.41406 66.7607 9.41406C67.0241 9.41406 67.2728 9.40009 67.5068 9.37305C67.7486 9.33686 67.9657 9.28811 68.1582 9.22656L68.4189 9.14355V15.5156ZM80.1836 17.0107C80.2201 17.0077 80.256 17.0013 80.292 16.9971C80.256 17.0013 80.2201 17.0076 80.1836 17.0107ZM80.9336 16.8506C80.7868 16.9035 80.6335 16.942 80.4746 16.9707C80.6336 16.9421 80.7868 16.9035 80.9336 16.8506ZM80.0732 16.709C80.0263 16.7196 79.9795 16.7281 79.9326 16.7334C80.0264 16.7229 80.1201 16.7017 80.2139 16.6699L80.0732 16.709ZM12 10.0479C11.5525 10.0479 11.1704 10.2744 10.8516 10.7852C10.5457 11.2904 10.377 12.1491 10.377 13.3975C10.377 14.6449 10.5452 15.5034 10.8506 16.0088L10.9736 16.1836C11.2659 16.5617 11.6071 16.7324 12 16.7324C12.4486 16.7324 12.8252 16.5102 13.1338 16.0107V16.0098C13.4486 15.5054 13.623 14.6473 13.623 13.3975C13.623 12.1477 13.4486 11.2895 13.1338 10.7852L13.1328 10.7832C12.8235 10.2739 12.4469 10.0479 12 10.0479ZM44.0566 16.4424C44.0652 16.4473 44.0741 16.4515 44.083 16.4561C44.0485 16.4382 44.0165 16.4186 43.9873 16.3965L44.0566 16.4424ZM52.3086 16.3945C52.3204 16.4013 52.3328 16.4067 52.3447 16.4131C52.2922 16.3849 52.2407 16.3548 52.1914 16.3203L52.3086 16.3945ZM60.4531 16.3945C60.4649 16.4013 60.4773 16.4067 60.4893 16.4131C60.4368 16.3849 60.3852 16.3548 60.3359 16.3203L60.4531 16.3945ZM53.1445 9.89844C52.6776 9.89858 52.2717 10.1357 51.9248 10.667C51.5921 11.1909 51.4146 12.0259 51.4238 13.2041V13.2061C51.4238 13.9536 51.493 14.5666 51.626 15.0498L51.6826 15.2217C51.8195 15.6069 51.9983 15.8902 52.2119 16.084C52.4617 16.2931 52.7642 16.4004 53.1309 16.4004C53.4582 16.4004 53.7633 16.2618 54.0508 15.9561C54.2698 15.723 54.4275 15.393 54.5156 14.9531V10.8242C54.3958 10.4978 54.2234 10.2738 54.0049 10.1348L54.002 10.1338C53.7683 9.98006 53.4853 9.89844 53.1445 9.89844ZM61.2891 9.89844C60.8221 9.89858 60.4162 10.1357 60.0693 10.667C59.7366 11.1909 59.5591 12.0259 59.5684 13.2041V13.2061C59.5684 13.9536 59.6375 14.5666 59.7705 15.0498L59.8271 15.2217C59.964 15.6069 60.1429 15.8902 60.3564 16.084C60.6063 16.2931 60.9087 16.4004 61.2754 16.4004C61.6027 16.4004 61.9079 16.2618 62.1953 15.9561C62.4144 15.723 62.572 15.393 62.6602 14.9531V10.8242C62.5404 10.4978 62.3679 10.2738 62.1494 10.1348L62.1465 10.1338C61.9129 9.98006 61.6299 9.89844 61.2891 9.89844ZM35.5312 15.3311C35.5313 15.6527 35.5597 15.8755 35.6055 16.0137C35.645 16.1327 35.708 16.1951 35.7939 16.2275C35.9095 16.2711 36.1008 16.2998 36.3828 16.2998C37.2739 16.2998 37.8733 16.0935 38.2305 15.7266C38.6045 15.3425 38.8046 14.7882 38.8047 14.0352C38.8047 13.3485 38.6185 12.8466 38.2734 12.5L38.2725 12.498C37.9445 12.1606 37.3747 11.9668 36.5088 11.9668H35.5312V15.3311ZM39.6543 15.9316V15.9326V15.9316ZM78.2295 15.7676C78.2415 15.7946 78.2547 15.8207 78.2676 15.8467C78.2339 15.7783 78.2019 15.7071 78.1738 15.6318L78.2295 15.7676ZM47.8418 15.7314C47.8445 15.7477 47.8476 15.7636 47.8506 15.7793C47.8397 15.722 47.8307 15.6615 47.8242 15.5977L47.8418 15.7314ZM24.5088 14.0283C24.5105 14.048 24.5137 14.0674 24.5156 14.0869C24.5128 14.0584 24.5092 14.0299 24.5068 14.001L24.5088 14.0283ZM71.6064 13.8369C71.6081 13.8566 71.6114 13.876 71.6133 13.8955C71.6105 13.867 71.6068 13.8385 71.6045 13.8096L71.6064 13.8369ZM26.2422 10.0342C25.891 10.0342 25.5603 10.2054 25.251 10.6016L25.252 10.6025C24.9988 10.9367 24.8213 11.4611 24.7363 12.1973H27.376C27.3779 11.8279 27.3431 11.4878 27.2676 11.1768V11.1758C27.1795 10.8042 27.0418 10.5223 26.8633 10.3184L26.8604 10.3145C26.7037 10.1271 26.5034 10.0342 26.2422 10.0342ZM73.3398 9.84277C72.9887 9.84283 72.658 10.014 72.3486 10.4102L72.3496 10.4111C72.0965 10.7453 71.919 11.2697 71.834 12.0059H74.4736C74.4755 11.6364 74.4408 11.2964 74.3652 10.9854V10.9844C74.2772 10.6128 74.1394 10.3309 73.9609 10.127L73.958 10.123C73.8014 9.93572 73.601 9.84277 73.3398 9.84277ZM38.0693 11.6426C38.1513 11.6596 38.2308 11.6776 38.3076 11.6973C38.1537 11.658 37.9897 11.6235 37.8154 11.5947L38.0693 11.6426ZM36.3682 7.33301C36.164 7.33303 36.0067 7.35271 35.8906 7.38574C35.7741 7.4189 35.7126 7.46132 35.6816 7.49902C35.6458 7.5428 35.6059 7.62819 35.5762 7.77539C35.5471 7.91971 35.5312 8.10845 35.5312 8.34473V11.3281H36.2705C36.8009 11.3281 37.1801 11.228 37.4326 11.0537C37.6958 10.8628 37.8741 10.6166 37.9727 10.3115C38.078 9.97595 38.1318 9.61601 38.1318 9.23145C38.1318 8.56219 37.9818 8.09709 37.7188 7.80078L37.7158 7.79688C37.4707 7.50441 37.0404 7.33301 36.3682 7.33301ZM42.3242 10.9512C42.3266 11.0005 42.3281 11.0516 42.3281 11.1045L42.3252 10.9512C42.3229 10.9019 42.3191 10.8544 42.3145 10.8086L42.3242 10.9512ZM78.5889 10.9316C78.592 10.9511 78.5965 10.9702 78.6006 10.9893C78.5897 10.9379 78.5813 10.8853 78.5771 10.8311L78.5889 10.9316ZM38.1631 10.373C38.1351 10.4598 38.1013 10.5425 38.0615 10.6211L38.1172 10.5C38.1341 10.4588 38.1491 10.4163 38.1631 10.373ZM17.9746 10.1748C17.969 10.178 17.9634 10.1812 17.958 10.1846C17.9793 10.1713 18.0026 10.1602 18.0273 10.1504L17.9746 10.1748ZM18.4473 10.0752V10.0762V10.0752ZM66.5088 9.98926C66.5708 10.0215 66.6243 10.0603 66.6699 10.1055H66.6709C66.6252 10.06 66.5711 10.0215 66.5088 9.98926ZM41.6699 9.90918C41.7481 9.9285 41.818 9.95412 41.8799 9.98633C41.9419 10.0186 41.9954 10.0573 42.041 10.1025L42.042 10.1016C41.9509 10.0112 41.8265 9.9479 41.6699 9.90918ZM46.2617 10.1025V10.1016C46.2408 10.0808 46.2178 10.0619 46.1934 10.0439C46.2179 10.0621 46.2407 10.0816 46.2617 10.1025ZM54.2529 10.0723C54.2398 10.0609 54.2275 10.0488 54.2139 10.0381L54.2109 10.0361C54.2255 10.0475 54.2389 10.0602 54.2529 10.0723ZM62.3975 10.0723C62.3844 10.0609 62.372 10.0488 62.3584 10.0381L62.3555 10.0361C62.37 10.0475 62.3835 10.0602 62.3975 10.0723ZM46.0771 9.97461C46.1127 9.99161 46.1453 10.0112 46.1758 10.0322C46.1453 10.0112 46.1127 9.99161 46.0771 9.97461ZM81.2861 9.99414C81.2946 9.99721 81.3033 9.9988 81.3115 10.001C81.2873 9.9946 81.2617 9.98568 81.2354 9.97168L81.2861 9.99414ZM54.1123 9.9668L54.0078 9.90332C53.9852 9.89092 53.9617 9.88041 53.9385 9.86914C53.9984 9.89826 54.0567 9.93018 54.1123 9.9668ZM62.2568 9.9668L62.1523 9.90332C62.1298 9.89092 62.1062 9.88041 62.083 9.86914C62.143 9.89826 62.2012 9.93018 62.2568 9.9668ZM67.4902 5.85059C67.7884 5.85067 68.0492 5.96321 68.2627 6.17773C68.4761 6.39225 68.5869 6.65348 68.5869 6.95215C68.5869 7.25098 68.4763 7.51295 68.2627 7.72754C68.0492 7.94197 67.7883 8.05363 67.4902 8.05371C67.1919 8.05371 66.9304 7.94214 66.7168 7.72754C66.5032 7.51296 66.3926 7.25097 66.3926 6.95215C66.3926 6.65355 66.5035 6.39222 66.7168 6.17773C66.9304 5.96313 67.1919 5.85059 67.4902 5.85059ZM54.7148 7.47363L54.7119 7.32031C54.7096 7.27102 54.7058 7.22351 54.7012 7.17773L54.7148 7.47363ZM62.8594 7.47363L62.8564 7.32031C62.8541 7.27102 62.8504 7.2235 62.8457 7.17773L62.8594 7.47363ZM54.3018 6.37402C54.3509 6.40293 54.3939 6.43672 54.4316 6.47461L54.4287 6.4707C54.3918 6.43414 54.3494 6.40205 54.3018 6.37402ZM62.4463 6.37402C62.4954 6.40293 62.5385 6.43672 62.5762 6.47461L62.5732 6.4707C62.5363 6.43414 62.4939 6.40205 62.4463 6.37402Z" fill="black"/>
</svg>
