<svg width="74" height="24" viewBox="0 0 74 24" fill="none" xmlns="http://www.w3.org/2000/svg">
<path d="M69.8555 15.384C66.6576 15.384 65.0586 14.0729 65.0586 11.4508C65.0586 11.2251 65.0703 10.9956 65.0936 10.7622L65.2103 10.7505C65.2103 12.1977 65.6888 13.2793 66.6459 13.9951V7.86768C66.6381 7.65759 66.5603 7.48642 66.4125 7.35414C66.2646 7.21408 66.0934 7.14406 65.8989 7.14406H65.7472V7.02734H69.342C70.6647 7.02734 71.6373 7.32691 72.2598 7.92603C72.5944 8.25283 72.7617 8.64577 72.7617 9.10484C72.7617 9.61059 72.5944 10.0347 72.2598 10.377C72.112 10.5404 71.9447 10.6571 71.7579 10.7271C71.7968 10.7271 71.8357 10.7271 71.8746 10.7271C72.4037 10.7271 72.89 10.91 73.3336 11.2757C73.7771 11.6414 73.9988 12.1355 73.9988 12.758C73.9988 13.3804 73.7771 13.8979 73.3336 14.3102C72.5788 15.0261 71.4195 15.384 69.8555 15.384ZM70.2523 9.525V9.17487C70.229 8.66911 70.1278 8.29174 69.9489 8.04275C69.7699 7.79376 69.4665 7.6537 69.0385 7.62258V14.7538C69.7388 14.746 70.2835 14.5592 70.6725 14.1935C71.0615 13.82 71.2561 13.3337 71.2561 12.7346C71.2561 12.0732 71.0732 11.5947 70.7075 11.299C70.3418 11.0034 69.9178 10.8555 69.4353 10.8555V10.7505C69.5987 10.7505 69.7349 10.7077 69.8438 10.6221C69.9605 10.5287 70.0461 10.4159 70.1006 10.2836C70.2018 9.99575 70.2523 9.74287 70.2523 9.525Z" fill="white"/>
<path d="M63.8542 9.31492C63.8542 9.73509 63.7375 10.1241 63.504 10.4821C63.2784 10.8322 63.0022 11.0812 62.6754 11.229C62.3486 11.3691 62.0257 11.4391 61.7067 11.4391C61.6133 11.4391 61.5238 11.4352 61.4382 11.4274C61.9284 11.5286 62.3758 11.832 62.7804 12.3378C62.9672 12.5634 63.1772 12.8552 63.4107 13.2131C63.6441 13.5633 63.8075 13.8045 63.9009 13.9368C64.3677 14.6059 64.8346 15.1506 65.3014 15.5707C66.2974 16.4733 67.5773 16.9713 69.1413 17.0647V17.1814C68.7133 17.4848 68.1765 17.7027 67.5306 17.835C67.1494 17.9128 66.7681 17.9517 66.3869 17.9517C66.0134 17.9517 65.6165 17.8972 65.1964 17.7883C64.7762 17.6794 64.3638 17.516 63.9592 17.2981C63.5546 17.0802 63.1422 16.7651 62.7221 16.3527C62.3097 15.9403 61.9712 15.5202 61.7067 15.0922C61.4421 14.6565 61.2126 14.2441 61.018 13.8551C60.8235 13.4582 60.6368 13.0692 60.4578 12.6879C60.2866 12.3067 60.1816 12.0732 60.1427 11.9877C59.9171 11.5208 59.7147 11.2601 59.5358 11.2057V11.089H59.7225C60.2283 11.089 60.6446 10.8905 60.9714 10.4937C61.1581 10.2681 61.267 10.0347 61.2982 9.79344C61.3293 9.54446 61.3448 9.38495 61.3448 9.31492C61.3448 8.73136 61.1737 8.3073 60.8313 8.04275C60.489 7.77042 60.0999 7.63425 59.6642 7.63425H59.1506V14.3453C59.1506 14.5476 59.2246 14.7226 59.3724 14.8705C59.5202 15.0105 59.6953 15.0805 59.8976 15.0805H60.0377V15.1973H55.8477V15.0805H55.9994C56.2017 15.0805 56.3729 15.0105 56.5129 14.8705C56.6608 14.7304 56.7386 14.5592 56.7463 14.3569V7.87935C56.7386 7.59146 56.6141 7.37748 56.3729 7.23743C56.2562 7.17518 56.1317 7.14406 55.9994 7.14406H55.8593V7.02734H60.4111C61.5705 7.02734 62.4497 7.22965 63.0489 7.63425C63.5857 7.99995 63.8542 8.56018 63.8542 9.31492Z" fill="white"/>
<path d="M48.276 10.1446C48.0348 9.74003 47.9142 9.31208 47.9142 8.86079C47.9142 8.23832 48.1477 7.73256 48.6145 7.34352C48.8946 7.10231 49.2409 6.94281 49.6532 6.865C49.9022 6.82609 50.1006 6.80664 50.2485 6.80664C50.4041 6.80664 50.5675 6.81053 50.7387 6.81831C50.9099 6.81831 51.1588 6.86889 51.4856 6.97004C51.8202 7.07119 52.1431 7.19568 52.4544 7.34352C52.7656 7.48358 53.0574 7.6781 53.3297 7.92709C53.6098 8.17607 53.8549 8.44841 54.065 8.74408C54.5163 9.38211 54.7419 10.1524 54.7419 11.055C54.7419 12.3622 54.2556 13.4087 53.283 14.1946C52.3182 14.9727 51.0382 15.3617 49.4432 15.3617C47.8481 15.3617 46.5604 14.9688 45.58 14.1829C44.5996 13.397 44.1094 12.3622 44.1094 11.0783C44.1094 10.0201 44.4362 9.11367 45.0898 8.35893C45.7511 7.5964 46.6109 7.12566 47.6691 6.9467L47.7392 7.06341C47.4201 7.39799 47.1634 7.89596 46.9688 8.55734C46.7821 9.21093 46.6887 9.91899 46.6887 10.6815C46.6887 11.9187 46.9377 12.9107 47.4357 13.6577C47.9337 14.4047 48.5951 14.7781 49.4198 14.7781C50.2524 14.7781 50.9176 14.4397 51.4156 13.7627C51.9136 13.0858 52.1626 12.1832 52.1626 11.055C52.1626 10.3392 52.0614 9.69724 51.8591 9.12923C51.6646 8.56123 51.3923 8.13717 51.0421 7.85706C50.692 7.57695 50.3224 7.43689 49.9334 7.43689C49.4276 7.43689 49.0386 7.58862 48.7662 7.89207C48.4472 8.24221 48.2877 8.67794 48.2877 9.19926C48.2877 9.49493 48.3305 9.81006 48.4161 10.1446H48.276Z" fill="white"/>
<path d="M32.1049 15.0816C32.3072 15.0816 32.4783 15.0116 32.6184 14.8716C32.7662 14.7237 32.844 14.5487 32.8518 14.3464V7.88045C32.844 7.63146 32.739 7.43305 32.5367 7.28521C32.4122 7.19184 32.2683 7.14516 32.1049 7.14516H31.9531V7.02844H35.8397C36.1742 7.02844 36.4699 7.00121 36.7267 6.94674C36.9912 6.89228 37.1585 6.84948 37.2286 6.81836V9.22265H37.1118V9.12928C37.1118 8.67021 36.9835 8.3084 36.7267 8.04385C36.4699 7.7793 36.112 7.63924 35.6529 7.62368H35.2444V10.88H36.8667C37.2402 10.8722 37.5437 10.7516 37.7771 10.5182C38.0105 10.277 38.1273 9.96961 38.1273 9.59613V9.54945H38.244V12.7941H38.1273V12.7357C38.1273 12.37 38.0105 12.0705 37.7771 11.837C37.5437 11.5958 37.2441 11.4713 36.8784 11.4635H35.2444V14.6031H37.3803C37.9483 14.6031 38.4502 14.4164 38.8859 14.0429C39.3216 13.6694 39.629 13.152 39.8079 12.4906H39.9246L39.4811 15.1984H31.9531V15.0816H32.1049Z" fill="white"/>
<path d="M18.0898 6.49038C18.6423 6.19471 19.1831 6.04688 19.7122 6.04688C20.249 6.04688 20.7392 6.1597 21.1827 6.38534C22.0698 6.84441 22.8284 7.59527 23.4586 8.63791L25.5478 12.0343L29.0142 6.86387H29.1192L30.4381 13.6916C30.7026 15.0921 31.0956 16.0648 31.6169 16.6094C32.0293 17.0374 32.5545 17.2513 33.1925 17.2513C33.247 17.2513 33.3053 17.2513 33.3676 17.2513V17.368C32.8852 17.5704 32.3833 17.6715 31.862 17.6715C30.8271 17.6715 29.9284 17.2669 29.1659 16.4577C28.5279 15.7885 28.0805 14.8432 27.8237 13.6216L27.2868 11.1589L25.291 14.1234C25.1588 14.3102 25.0421 14.5358 24.9409 14.8004C24.8398 15.0649 24.7931 15.2906 24.8008 15.4773H24.6958L21.8597 10.622L21.2761 14.5436V14.5903C21.2761 14.7148 21.3189 14.8315 21.4045 14.9404C21.4979 15.0416 21.6068 15.0921 21.7313 15.0921H21.9064V15.1972H19.3503V15.0805H19.5371C19.7472 15.0805 19.93 15.0182 20.0856 14.8937C20.249 14.7615 20.3502 14.5864 20.3891 14.3685L21.1944 9.36153C20.7976 8.66903 20.358 8.05434 19.8756 7.51746C19.3231 6.91055 18.7707 6.6071 18.2182 6.6071C18.1871 6.6071 18.156 6.6071 18.1249 6.6071L18.0898 6.49038Z" fill="white"/>
<path d="M22.0572 17.1941C21.458 17.5442 20.8473 17.7193 20.2248 17.7193C19.6023 17.7193 19.011 17.6026 18.4507 17.3691C17.8983 17.1357 17.3536 16.7272 16.8168 16.1437C16.2877 15.5679 15.8519 14.8637 15.5096 14.0311L15.1944 13.2608H12.6968L12.2299 14.3463C12.191 14.4474 12.1716 14.5291 12.1716 14.5914C12.1716 14.6536 12.1832 14.7236 12.2066 14.8015C12.2377 14.8715 12.2961 14.9376 12.3817 14.9999C12.475 15.0543 12.5723 15.0816 12.6734 15.0816H12.7785V15.1983H10.1758V15.0816H10.2808C10.4598 15.0816 10.6349 15.031 10.806 14.9298C10.985 14.8209 11.1328 14.6614 11.2495 14.4513L13.6305 9.22256C13.3971 8.57675 13.2025 8.14491 13.0469 7.92705C12.8991 7.7014 12.7746 7.53022 12.6734 7.41351C12.4867 7.19564 12.2533 7.03614 11.9732 6.93499C11.8642 6.89608 11.7358 6.87663 11.588 6.87663C11.4402 6.87663 11.2729 6.91164 11.0861 6.98167L11.0628 6.86496C11.6853 6.49926 12.2805 6.31641 12.8485 6.31641C13.6888 6.31641 14.4475 6.72879 15.1244 7.55357C15.4668 7.98151 15.7741 8.49894 16.0465 9.10585L17.9139 13.3892C18.2562 14.1751 18.5091 14.7042 18.6725 14.9765C18.8359 15.2411 18.9798 15.4667 19.1043 15.6535C19.2366 15.848 19.365 16.0153 19.4895 16.1553C19.614 16.2954 19.7501 16.4315 19.898 16.5638C20.1548 16.7972 20.4777 16.9723 20.8667 17.089C21.0301 17.1435 21.2091 17.1707 21.4036 17.1707C21.6059 17.1707 21.816 17.1396 22.0338 17.0774L22.0572 17.1941ZM12.9536 12.6773H14.961L14.2257 10.8682C14.1635 10.7282 14.0896 10.5297 14.004 10.273L12.9536 12.6773Z" fill="white"/>
<path d="M10.936 17.6709C10.7493 17.6709 10.5625 17.6592 10.3758 17.6359C9.59771 17.5114 8.92466 17.2196 8.35666 16.7606C7.78866 16.3015 7.3646 15.7296 7.08449 15.0449C6.40755 15.255 5.6956 15.36 4.94864 15.36C3.47805 15.36 2.28369 14.971 1.36554 14.1929C0.455181 13.407 0 12.376 0 11.1C0 9.8239 0.466853 8.80072 1.40056 8.03041C2.33426 7.25232 3.56364 6.86328 5.08869 6.86328C5.96793 6.86328 6.82383 6.95276 7.65638 7.13172C8.02986 7.20953 8.33332 7.29512 8.56674 7.38849L8.45003 9.62938H8.34499C8.15825 8.89798 7.78866 8.35332 7.23621 7.9954C6.69155 7.6297 6.03018 7.44685 5.25209 7.44685C4.474 7.44685 3.83208 7.78921 3.32632 8.47392C2.82057 9.15864 2.56769 10.0612 2.56769 11.1817C2.56769 11.8897 2.67662 12.5161 2.89449 13.0607C3.11235 13.6054 3.42358 14.0295 3.82819 14.3329C4.2328 14.6286 4.6802 14.7764 5.17039 14.7764C5.66837 14.7764 6.05741 14.6636 6.33752 14.438C6.62541 14.2045 6.76936 13.9011 6.76936 13.5276V11.9403C6.77714 11.7691 6.72657 11.6368 6.61763 11.5435C6.51648 11.4501 6.36865 11.4034 6.17412 11.4034H5.99905V11.2867H9.92061V11.4034H9.73387C9.54713 11.4034 9.40319 11.4501 9.30203 11.5435C9.20088 11.6368 9.1542 11.7691 9.16198 11.9403V13.8311C9.16198 14.2823 9.25146 14.7297 9.43042 15.1733C9.83502 16.1536 10.4808 16.7839 11.3679 17.064C11.6246 17.1418 11.8814 17.1807 12.1382 17.1807C12.3949 17.1807 12.6478 17.1535 12.8968 17.099L12.9201 17.2157C12.2199 17.5192 11.5585 17.6709 10.936 17.6709Z" fill="white"/>
</svg>
